<?xml version="1.0" standalone="no"?>
<!DOCTYPE svg>
<svg version="1.0" xmlns="http://www.w3.org/2000/svg"
 width="1080.000000pt" height="1080.000000pt" viewBox="0 0 1080.000000 1080.000000"
 preserveAspectRatio="xMidYMid meet" 
 style="background: #fff;"
 >
<metadata>
Created by Wilfred Lopez
</metadata>
<g

transform="translate(0.000000,1080.000000) scale(0.100000,-0.100000)"
   fill="#273fa3" stroke="none" >
<path   
  
d="M0 5400 l0 -5400 5400 0 5400 0 0 5400 0 5400 -5400 0 -5400 0 0
-5400z m5105 4033 c22 -3 52 -6 67 -6 14 -1 24 -4 22 -6 -6 -6 166 -53 194
-53 13 0 31 7 41 16 10 9 21 13 24 10 4 -4 35 1 69 11 34 9 71 18 83 20 11 1
65 8 119 15 239 31 587 -24 785 -124 28 -15 51 -24 51 -21 0 2 16 -7 36 -20
20 -14 40 -25 45 -25 4 0 37 -20 72 -45 67 -46 83 -54 71 -32 -4 7 -3 9 2 4 5
-5 9 -12 9 -16 0 -16 65 -62 76 -55 8 5 9 3 4 -6 -5 -8 -1 -18 10 -26 54 -40
170 -163 210 -224 17 -25 33 -46 37 -48 4 -2 17 -21 29 -42 12 -22 27 -36 32
-33 6 3 7 1 3 -6 -4 -6 1 -23 12 -39 11 -15 23 -37 26 -50 4 -12 11 -20 16
-17 4 3 6 -5 2 -17 -4 -16 -2 -19 8 -13 8 5 11 4 6 -3 -3 -6 3 -26 14 -44 11
-18 20 -39 20 -46 0 -8 6 -28 14 -45 24 -53 63 -208 71 -277 3 -35 8 -68 11
-71 7 -12 10 -339 3 -339 -4 0 -10 -26 -14 -57 -4 -32 -15 -91 -26 -131 -11
-40 -17 -77 -14 -83 4 -5 2 -9 -4 -9 -5 0 -13 -15 -16 -32 -4 -18 -11 -38 -16
-44 -5 -6 -10 -19 -12 -30 -8 -41 -91 -197 -166 -309 -78 -117 -206 -248 -346
-354 -73 -55 -90 -70 -66 -56 10 5 12 4 7 -4 -4 -6 -11 -9 -16 -6 -8 5 -118
-49 -185 -90 -18 -11 -132 -53 -226 -83 -19 -7 -44 -12 -55 -12 -11 0 -36 -8
-57 -19 -20 -10 -34 -14 -30 -9 4 7 -6 8 -28 4 -19 -3 -111 -9 -205 -12 -151
-6 -186 -4 -295 16 -68 12 -150 31 -182 41 -31 11 -67 17 -80 15 -12 -3 -51
-12 -87 -21 -285 -71 -461 -73 -790 -11 -8 2 -22 6 -30 9 -101 38 -137 47
-159 42 -15 -3 -21 -2 -14 3 8 5 -18 23 -75 51 -48 24 -132 73 -187 109 -129
85 -329 282 -407 402 -63 96 -136 238 -163 317 -10 29 -23 49 -28 46 -6 -3 -7
-1 -3 5 4 7 -2 46 -13 87 -12 41 -21 85 -21 98 0 13 -3 17 -8 11 -24 -37 -22
459 2 571 10 44 19 89 21 100 2 11 8 34 13 52 6 17 8 34 4 37 -3 3 -1 6 5 6 5
0 15 18 22 40 6 22 25 70 41 106 17 36 27 70 24 75 -3 5 -1 8 6 7 9 -3 58 73
87 132 14 29 135 179 149 184 8 3 14 13 14 21 0 9 5 13 10 10 6 -3 10 0 10 8
0 8 10 22 23 33 22 19 22 19 7 -1 -8 -12 1 -4 20 16 70 74 227 185 331 235 41
20 49 28 38 36 -11 8 -10 9 4 4 10 -3 62 11 115 33 53 21 110 41 125 45 18 4
25 11 21 19 -5 9 -4 9 5 1 8 -7 29 -7 74 2 146 30 391 38 552 17z m-1854
-3383 c89 0 149 -4 149 -10 0 -5 -25 -66 -55 -136 -30 -69 -52 -131 -48 -137
3 -7 2 -9 -2 -5 -7 7 -72 -124 -78 -157 -1 -5 -12 -29 -24 -53 -12 -23 -19
-51 -16 -60 3 -9 2 -14 -2 -9 -5 4 -19 -18 -32 -50 -25 -62 -29 -88 -11 -77 6
4 8 3 5 -4 -9 -14 64 -182 77 -175 5 4 7 -1 3 -11 -4 -10 6 -44 24 -84 46 -99
55 -119 92 -210 18 -45 37 -79 42 -75 4 5 5 3 1 -4 -4 -7 0 -26 9 -43 9 -17
15 -36 13 -42 -4 -11 -301 -14 -318 -3 -5 3 -16 27 -25 53 -52 162 -61 182
-74 170 -11 -11 -12 -9 -2 9 6 12 9 28 6 35 -26 74 -26 75 -36 50 -5 -13 -6
-29 -2 -34 3 -7 1 -8 -5 -4 -12 7 -27 -34 -24 -67 0 -10 -4 -15 -10 -11 -7 5
-9 1 -5 -9 3 -10 3 -17 -2 -17 -4 0 -21 -40 -37 -90 l-29 -89 -159 -3 c-161
-3 -186 2 -186 35 0 9 3 8 8 -1 9 -14 83 137 86 175 0 11 5 19 10 15 5 -3 6 2
3 12 -4 9 -3 15 2 12 11 -7 33 53 24 67 -3 5 -1 7 4 4 6 -4 16 5 21 21 6 15
26 65 46 111 19 46 33 88 29 94 -4 6 -1 7 7 2 10 -6 12 -4 7 9 -4 10 -3 15 3
11 6 -3 10 1 10 10 0 9 10 35 21 57 20 39 20 44 6 72 -8 17 -26 57 -39 88 -14
32 -29 55 -33 50 -5 -4 -5 -2 -1 5 9 16 -30 109 -44 105 -6 -1 -8 2 -5 8 8 12
-2 40 -51 147 -19 40 -36 84 -40 98 -3 13 -10 22 -15 19 -5 -3 -6 3 -2 12 5
13 3 15 -7 9 -8 -5 -11 -4 -7 2 4 6 0 27 -8 47 -26 63 -30 61 140 59 86 -1
159 -5 163 -7 5 -3 26 -57 47 -120 25 -74 42 -111 47 -103 5 7 6 1 3 -14 -4
-17 -1 -32 9 -41 8 -9 13 -18 10 -21 -3 -3 -1 -14 4 -24 10 -16 12 -15 21 10
6 16 11 32 11 36 0 4 7 22 16 39 8 18 16 47 17 66 1 19 5 32 9 30 8 -5 29 56
22 67 -3 5 0 9 5 9 6 0 11 11 11 24 0 13 7 29 15 36 8 7 16 20 16 29 1 13 2
13 6 -1 4 -16 20 -18 154 -18z m-873 -128 l3 -132 -196 0 -195 0 0 -135 0
-135 168 -2 167 -3 3 -110 c4 -170 21 -155 -173 -155 l-165 0 0 -145 0 -145
188 -1 c103 0 196 -4 207 -9 11 -5 15 -9 8 -9 -9 -1 -13 -35 -15 -122 l-3
-120 -340 1 c-187 0 -343 4 -347 8 -5 5 -7 307 -6 673 l3 664 335 5 c184 3
340 5 345 4 6 0 11 -54 13 -132z m2873 126 c0 -5 0 -63 1 -130 l0 -123 -190
-3 -190 -2 -5 -38 c-3 -20 -5 -80 -4 -132 l2 -95 165 -5 165 -5 0 -130 0 -130
-167 -3 -167 -2 2 -143 2 -142 193 -3 c116 -1 192 -6 192 -12 1 -6 1 -63 1
-127 l0 -118 -345 -3 -346 -2 0 673 c0 371 2 676 4 678 8 7 686 4 687 -3z
m484 2 c22 0 24 -4 75 -140 32 -84 49 -127 75 -185 7 -16 19 -47 25 -67 6 -21
16 -40 21 -43 5 -4 9 -15 9 -26 0 -10 4 -27 9 -37 11 -20 71 -182 75 -199 1
-7 5 -16 9 -20 4 -4 5 22 3 58 -9 125 -7 652 2 658 6 3 71 5 145 3 129 -3 135
-4 141 -25 9 -33 7 -1300 -2 -1314 -10 -16 -276 -20 -295 -5 -8 7 -18 8 -22 4
-5 -4 -5 -1 -1 6 4 7 12 10 17 7 5 -3 6 1 3 9 -3 9 -11 13 -17 9 -6 -3 -7 -1
-3 6 8 13 -34 131 -47 131 -5 0 -6 4 -2 9 3 5 -1 25 -10 43 -8 18 -30 74 -49
123 -19 50 -54 140 -77 200 -24 61 -44 115 -45 122 -3 18 -26 85 -27 81 -1 -2
0 -173 3 -381 5 -354 4 -377 -12 -377 -145 -3 -272 0 -279 7 -11 11 -17 1303
-6 1303 5 0 6 4 3 9 -4 5 -4 15 -1 23 4 10 34 12 133 11 70 -2 136 -3 147 -3z
m1450 -12 l40 -15 3 -148 c2 -138 1 -147 -15 -140 -82 31 -172 47 -255 43 -80
-3 -92 -6 -109 -27 -22 -26 -25 -90 -8 -140 10 -28 83 -91 106 -91 4 0 2 4 -5
9 -11 7 -10 9 3 14 9 4 13 3 10 -3 -5 -8 41 -59 57 -61 5 -1 11 -2 16 -3 4 -1
24 -12 44 -24 21 -13 43 -20 49 -16 8 5 9 3 4 -6 -6 -10 -4 -12 9 -7 9 4 15 3
12 -2 -3 -5 6 -17 21 -27 15 -9 36 -26 47 -36 11 -10 23 -18 28 -18 4 0 8 -6
8 -14 0 -8 4 -16 8 -18 4 -1 17 -27 29 -56 20 -46 22 -68 19 -185 -2 -76 -8
-147 -16 -167 -18 -48 -64 -104 -105 -130 -20 -12 -33 -26 -30 -31 4 -5 0 -6
-8 -4 -7 3 -31 -2 -53 -12 -45 -20 -46 -20 -99 -22 -22 -1 -35 -5 -28 -9 6 -4
-45 -6 -114 -5 -68 0 -127 4 -130 7 -4 3 -22 6 -42 6 -20 0 -58 6 -86 13 l-50
13 -5 143 c-3 78 -2 150 2 159 4 9 7 13 7 7 2 -16 49 -34 135 -51 148 -30 333
-4 295 42 -10 12 -9 13 5 8 14 -5 16 2 16 46 0 44 -4 56 -29 78 -16 15 -46 36
-67 47 -22 11 -66 35 -99 54 -32 19 -65 34 -72 34 -7 0 -13 4 -13 9 0 5 -4 6
-10 3 -5 -3 -10 -1 -10 6 0 7 -3 9 -6 6 -4 -3 -15 5 -26 18 -11 14 -25 25 -33
25 -20 0 -93 113 -106 164 -6 27 -9 99 -7 183 4 123 7 143 29 185 13 26 32 50
42 53 10 4 16 10 12 13 -8 8 95 72 117 72 10 0 18 4 18 9 0 15 61 19 240 16
114 -2 177 -7 205 -17z m1003 8 c4 -2 5 -61 2 -131 l-5 -128 -192 2 -193 2 0
-135 0 -136 163 0 c90 0 167 -4 173 -9 5 -6 7 -61 4 -133 l-5 -123 -167 -3
-168 -2 0 -145 0 -145 197 -2 197 -3 -3 -125 c-1 -69 -4 -126 -5 -128 -5 -4
-678 -3 -683 1 -5 5 -4 1337 1 1345 4 7 672 6 684 -2z m807 -4 l60 -17 3 -139
c1 -77 -1 -143 -5 -147 -4 -4 -35 2 -68 13 -41 15 -93 23 -165 26 -96 4 -107
2 -132 -18 -32 -24 -37 -42 -10 -34 16 5 16 5 0 -6 -14 -8 -18 -24 -18 -64 0
-49 3 -57 35 -85 40 -35 106 -71 130 -71 9 0 13 -5 9 -11 -4 -7 2 -7 17 1 20
10 22 10 11 -1 -10 -11 -7 -16 16 -29 112 -59 136 -74 171 -111 21 -23 44 -38
50 -35 6 4 9 1 5 -7 -2 -7 4 -34 15 -60 17 -39 19 -63 16 -174 -2 -70 -8 -142
-13 -160 -6 -17 -7 -35 -4 -39 4 -4 2 -4 -5 0 -7 3 -14 -2 -18 -14 -16 -51
-157 -145 -235 -157 -142 -22 -403 -12 -467 19 l-28 13 0 139 c0 136 1 139 23
147 14 5 21 5 17 -1 -6 -9 65 -33 74 -25 2 3 11 -1 19 -8 10 -8 55 -12 141
-12 110 0 129 2 153 20 25 18 27 26 28 81 0 50 -4 64 -22 81 -44 40 -107 75
-120 67 -7 -4 -10 -3 -5 1 10 11 -121 77 -135 69 -7 -5 -8 -2 -3 6 6 10 4 12
-8 7 -10 -4 -16 -2 -14 5 1 6 -8 16 -19 23 -12 6 -34 25 -49 44 -22 25 -30 29
-37 19 -8 -10 -9 -10 -5 2 5 16 -22 70 -35 70 -4 0 -4 7 -1 17 4 9 2 14 -3 11
-5 -4 -10 6 -11 20 -1 15 -5 66 -9 113 -4 57 -2 111 7 160 7 41 13 83 12 94
-1 12 1 14 4 6 4 -10 11 -5 22 16 9 17 35 47 58 66 23 19 39 38 35 41 -3 4 2
4 12 0 13 -5 17 -4 12 4 -4 8 -2 10 8 6 8 -3 25 0 38 7 39 21 87 27 238 27
106 0 161 -4 205 -16z m-4819 -4 c19 -2 30 -8 27 -15 -5 -11 34 -29 52 -24 5
1 7 0 4 -3 -3 -4 11 -25 32 -48 21 -23 41 -55 44 -70 4 -15 10 -28 13 -28 8 0
5 -495 -3 -557 -11 -76 -109 -174 -191 -189 -15 -3 -34 -9 -43 -13 -9 -4 -65
-9 -126 -10 -103 -2 -136 -8 -107 -18 6 -3 12 -9 12 -14 0 -6 -5 -7 -10 -4 -8
5 -10 -48 -10 -165 1 -94 0 -174 -3 -176 -2 -3 -69 -5 -148 -6 l-144 0 -5 672
c-3 369 -3 674 -1 676 5 5 554 -2 607 -8z m-1410 -1728 l134 0 0 -675 0 -676
-147 3 -148 3 1 295 c0 162 4 323 9 358 5 40 4 62 -2 62 -13 0 -96 -248 -87
-262 4 -7 3 -8 -4 -4 -10 6 -16 -5 -27 -54 -6 -23 -26 -60 -37 -66 -23 -14
-212 -5 -224 11 -6 8 -13 13 -15 11 -2 -2 -5 10 -6 27 -2 18 -7 33 -13 35 -6
2 -8 8 -5 13 3 5 0 19 -7 31 -6 13 -12 28 -13 33 -2 28 -29 94 -36 89 -5 -3
-6 1 -3 9 2 7 -9 48 -26 89 -16 42 -30 82 -30 89 0 7 -2 10 -5 7 -8 -8 16
-121 28 -137 7 -8 8 -12 2 -9 -7 4 -10 -102 -10 -310 l0 -317 -148 -3 -147 -3
2 673 3 673 154 0 154 0 10 -30 c6 -16 13 -32 16 -35 3 -3 6 -9 7 -15 1 -24
17 -65 25 -65 5 0 5 -7 2 -17 -4 -9 -2 -14 3 -11 5 4 10 -4 10 -17 2 -19 14
-56 59 -170 5 -11 10 -31 12 -45 2 -14 8 -26 14 -28 5 -2 9 -10 9 -17 0 -8 5
-26 12 -42 6 -15 13 -38 14 -50 2 -12 10 -35 18 -52 9 -16 16 -37 16 -46 0 -8
4 -15 9 -15 8 0 87 215 93 255 2 11 7 25 11 32 14 22 90 239 91 260 0 11 4 19
7 17 3 -2 12 16 19 39 15 51 29 70 47 62 8 -3 75 -5 149 -5z m2272 -675 l2
-676 -147 3 -148 3 -21 54 c-13 32 -24 48 -28 40 -3 -8 -3 -4 -1 7 3 12 -1 37
-9 55 -9 19 -26 63 -40 99 -13 36 -47 124 -74 195 -28 72 -66 173 -86 225
l-36 95 6 -64 c4 -36 7 -97 8 -135 1 -39 3 -75 5 -81 2 -5 3 -119 2 -252 l-1
-243 -150 0 -150 0 0 665 c0 366 0 668 0 673 0 4 68 7 151 7 l151 0 15 -40 c8
-22 35 -89 58 -150 24 -60 55 -141 70 -180 15 -38 30 -74 33 -80 4 -5 8 -14 9
-20 1 -5 10 -32 19 -58 12 -35 19 -45 26 -35 6 9 7 6 3 -9 -3 -12 2 -43 14
-70 11 -26 24 -61 30 -78 l11 -30 -6 35 c-7 44 -18 696 -11 713 3 9 43 11 148
10 l144 -2 3 -676z m1900 670 c35 -8 68 -13 73 -9 5 3 10 4 11 2 1 -2 4 -69 7
-149 l6 -147 -30 5 c-16 3 -42 6 -57 7 -14 0 -24 4 -21 9 2 4 -8 7 -24 7 -15
0 -70 2 -121 5 -65 3 -90 1 -86 -7 4 -7 2 -8 -5 -4 -17 11 -79 -21 -85 -44 -3
-11 -9 -30 -12 -41 -3 -12 -2 -19 2 -16 5 3 7 -132 4 -301 -3 -169 -1 -322 3
-340 13 -52 94 -78 161 -52 l26 9 2 223 3 223 142 3 142 3 3 -330 3 -330 -50
-25 c-27 -14 -86 -33 -130 -42 -89 -19 -261 -27 -303 -14 -94 29 -136 38 -145
33 -6 -4 -7 -1 -2 7 6 10 4 12 -9 7 -10 -4 -15 -3 -11 3 9 14 -8 12 -25 -2
-12 -11 -12 -10 -2 3 10 13 4 23 -36 60 -26 24 -48 51 -50 59 -2 8 -7 17 -10
20 -14 11 -17 88 -17 500 0 455 0 457 52 526 13 17 21 34 18 37 -3 4 -2 5 1 2
4 -2 23 8 43 24 42 33 96 58 166 76 71 18 286 18 363 0z m1049 1 c2 -2 5 -61
6 -130 l2 -126 -25 -1 c-14 0 -103 0 -197 1 l-173 1 0 -135 0 -136 168 -2 167
-3 0 -133 0 -134 -167 1 -168 2 0 -146 0 -145 195 0 195 0 0 -130 0 -130 -344
0 c-301 0 -345 2 -350 16 -3 8 -6 309 -5 669 0 547 2 656 14 662 14 8 674 7
682 -1z m-4241 -7 c4 -6 15 -55 24 -108 45 -248 72 -387 77 -401 4 -8 7 -24 8
-35 2 -26 41 -236 65 -350 36 -170 80 -405 80 -425 0 -20 -5 -20 -142 -18
l-142 3 -8 30 c-5 17 -10 44 -12 60 -11 96 -29 192 -39 203 -7 9 -41 12 -122
11 -62 -1 -117 -4 -122 -8 -6 -3 -15 -40 -21 -81 -10 -68 -29 -176 -38 -207
-2 -10 -40 -13 -144 -13 -164 0 -152 -13 -120 138 11 51 19 96 18 100 -1 4 2
14 5 22 8 21 28 126 26 136 -1 5 0 16 3 24 9 23 39 163 44 201 2 19 10 66 18
104 71 364 119 602 122 613 5 16 409 18 420 1z m2138 -1 c2 -7 7 -22 12 -33 4
-11 6 -24 5 -29 -2 -10 17 -113 26 -136 3 -8 6 -26 7 -40 2 -14 10 -61 19
-105 9 -44 33 -165 52 -270 20 -104 50 -255 67 -335 16 -80 32 -163 34 -185 3
-22 9 -53 14 -70 5 -16 12 -54 16 -82 l7 -53 -141 0 c-78 0 -143 4 -146 9 -3
5 -15 69 -27 142 -12 74 -26 140 -31 147 -7 8 -46 12 -130 12 -86 0 -120 -3
-122 -12 -2 -7 -13 -69 -26 -138 -12 -69 -24 -133 -27 -142 -4 -16 -19 -18
-144 -18 -138 0 -139 0 -138 23 0 27 11 84 78 422 29 143 65 325 81 405 15 80
43 219 61 308 26 131 29 166 19 172 -23 14 18 18 228 19 154 1 204 -2 206 -11z
m2911 -10 c23 -12 35 -14 50 -6 16 9 18 8 8 -2 -9 -10 -2 -19 30 -44 22 -17
52 -53 66 -81 25 -48 26 -57 29 -261 3 -194 1 -216 -18 -270 -11 -33 -22 -63
-23 -69 -1 -5 -19 -23 -39 -41 -20 -17 -34 -35 -30 -38 3 -4 -1 -4 -11 0 -33
12 -29 -26 12 -120 23 -51 41 -99 41 -105 0 -7 5 -9 12 -5 6 4 8 3 5 -3 -6
-10 29 -111 43 -123 3 -3 15 -32 27 -65 11 -33 24 -68 28 -78 7 -16 -3 -17
-161 -15 l-167 3 -10 30 c-6 17 -13 32 -16 35 -3 3 -8 14 -9 25 -2 11 -10 36
-17 55 -7 19 -22 58 -32 85 -10 28 -22 53 -28 57 -5 4 -6 10 -3 14 4 3 -2 22
-13 42 -10 20 -22 51 -25 69 -3 18 -10 33 -15 33 -5 0 -6 7 -3 15 4 9 0 15
-10 15 -14 0 -16 -28 -18 -237 l-3 -238 -152 -3 -153 -3 0 676 0 676 288 -3
c245 -3 291 -5 317 -20z m-7003 -2409 l-1 -103 26 33 c44 56 116 165 116 176
0 10 67 8 67 -2 0 -6 -21 -44 -31 -57 -40 -50 -58 -75 -73 -101 -17 -30 -16
-31 17 -94 19 -35 37 -59 39 -55 3 5 3 3 1 -4 -1 -7 9 -36 23 -64 14 -27 24
-51 22 -53 -2 -2 -14 -5 -28 -7 -23 -3 -30 7 -75 94 -27 54 -52 98 -55 98 -3
0 -16 -16 -28 -35 -20 -28 -23 -44 -20 -94 3 -52 0 -61 -14 -63 -10 0 -23 -1
-28 -2 -9 -1 -13 145 -10 418 0 25 27 40 44 25 4 -4 8 -53 8 -110z m518 99 c0
-5 0 -15 0 -23 0 -12 -16 -15 -87 -15 -49 0 -94 -4 -101 -9 -9 -5 -12 -27 -10
-72 l3 -64 85 -1 c82 -2 85 -2 85 -25 0 -23 -2 -23 -87 -20 l-87 3 2 -79 2
-78 95 -3 c52 -2 96 -4 96 -5 1 -1 4 -11 6 -21 3 -18 -4 -19 -124 -20 l-128
-1 0 222 0 222 98 3 c101 3 153 -2 152 -14z m323 -8 c3 -10 2 -21 -1 -24 -3
-3 -44 -6 -91 -6 -47 0 -92 -4 -99 -9 -9 -5 -12 -27 -10 -72 l3 -64 87 -3 c79
-3 87 -4 85 -22 -1 -23 3 -22 -100 -20 l-78 1 3 -78 3 -78 98 -3 c79 -2 97 -6
97 -18 0 -8 4 -13 8 -10 5 3 9 0 9 -7 0 -7 -12 -12 -26 -11 -14 0 -78 2 -141
2 l-115 2 6 222 c3 123 6 223 7 223 1 0 58 -1 126 -3 112 -3 124 -5 129 -22z
m198 16 c54 -6 71 -12 91 -34 47 -50 44 -154 -6 -201 -19 -18 -41 -24 -98 -29
l-73 -7 0 -80 c0 -44 -4 -83 -8 -86 -5 -3 -18 -4 -30 -2 -22 4 -22 5 -20 219
1 118 4 218 7 222 5 8 46 8 137 -2z m1190 -164 c15 -89 29 -166 31 -172 2 -7
19 57 37 142 44 202 43 200 83 196 29 -3 33 -7 36 -37 3 -27 6 -31 14 -20 8
11 9 10 4 -4 -5 -17 39 -237 53 -265 4 -6 19 59 34 145 19 116 23 159 15 164
-7 4 5 10 26 14 20 4 40 5 43 2 5 -6 -24 -180 -48 -287 -5 -25 -11 -61 -13
-80 -7 -67 -15 -80 -52 -80 -29 0 -35 4 -40 28 -3 15 -11 45 -17 67 -5 22 -11
47 -12 55 -3 25 -47 201 -50 198 -2 -2 -20 -79 -41 -173 -21 -93 -44 -176 -51
-183 -9 -10 -13 -10 -13 -2 0 7 -6 10 -13 7 -8 -3 -18 -2 -24 1 -9 7 -28 87
-37 158 -9 69 -19 120 -25 129 -4 6 -8 30 -9 53 0 24 -5 49 -10 55 -7 11 -8
19 -4 54 1 7 11 9 29 4 26 -7 27 -11 54 -169z m499 -51 c0 -122 -5 -223 -10
-231 -7 -11 -10 -11 -10 -2 0 7 -8 12 -17 10 -17 -3 -18 14 -21 211 -3 222 1
244 38 234 19 -5 20 -15 20 -222z m1146 214 c7 -5 9 -12 5 -15 -16 -11 -53
-101 -47 -115 3 -8 1 -14 -5 -12 -6 1 -19 -20 -30 -48 -10 -27 -25 -59 -31
-70 -7 -11 -14 -56 -18 -100 -4 -69 -7 -80 -22 -77 -10 2 -18 -3 -18 -10 0 -9
-3 -9 -10 2 -5 8 -10 44 -10 80 0 52 -7 81 -36 145 -42 95 -84 204 -84 217 0
5 12 8 26 6 21 -2 31 -15 56 -73 16 -38 39 -90 50 -115 l19 -45 15 34 c8 19
12 42 9 50 -3 9 -3 12 1 8 7 -7 43 57 44 78 0 6 9 24 19 42 19 31 45 38 67 18z
m476 -147 c-4 -197 3 -232 53 -248 46 -15 98 1 114 36 7 16 11 88 11 194 0
170 0 170 23 169 24 0 69 -17 50 -18 -10 -1 -13 -38 -13 -148 0 -150 -10 -225
-33 -247 -41 -42 -139 -51 -202 -21 -57 28 -66 69 -63 270 l3 160 30 6 c17 4
30 7 30 8 0 0 -1 -72 -3 -161z m508 137 c78 -25 97 -165 31 -224 -29 -26 -43
-50 -22 -37 5 4 7 -3 4 -14 -3 -11 -1 -20 5 -20 5 0 13 -16 16 -35 4 -19 10
-35 14 -35 4 0 8 -8 9 -18 1 -9 3 -23 5 -31 2 -9 -8 -14 -33 -15 -29 -1 -35 2
-34 18 1 10 -11 49 -25 85 -27 66 -27 66 -68 68 l-42 2 0 -79 c0 -53 4 -80 13
-83 6 -3 -13 -5 -43 -5 -30 0 -49 2 -42 5 9 3 12 55 12 208 0 112 2 209 5 217
4 11 23 12 88 7 46 -3 94 -10 107 -14z m500 -11 c0 -24 -1 -24 -95 -24 l-95 0
0 -75 0 -75 86 0 c76 0 85 -2 82 -17 -3 -15 -16 -18 -86 -21 l-82 -3 0 -99 c0
-55 -4 -100 -9 -100 -5 0 -16 -3 -25 -6 -14 -5 -16 18 -16 222 l0 229 120 -3
c120 -3 120 -3 120 -28z m271 -16 c12 -23 24 -36 31 -32 7 4 8 3 4 -4 -6 -10
7 -38 101 -207 l33 -60 -1 166 c-1 92 1 171 5 177 3 6 15 8 26 5 19 -5 20 -14
20 -222 0 -122 -5 -223 -10 -231 -7 -11 -10 -12 -10 -2 0 8 -7 11 -18 8 -13
-4 -24 7 -46 47 -16 28 -36 60 -45 71 -9 10 -15 19 -13 20 2 0 0 9 -3 18 -4
10 -11 15 -16 12 -5 -3 -6 1 -3 9 3 8 -1 21 -8 28 -7 8 -26 41 -43 73 l-30 60
-3 -60 c-2 -32 -2 -107 0 -166 3 -103 2 -107 -19 -111 -13 -2 -25 -2 -28 1 -3
3 -5 101 -5 218 0 190 2 214 17 222 25 14 42 4 64 -40z m474 23 c5 -9 10 -18
10 -21 12 -66 19 -91 30 -100 8 -6 12 -17 9 -25 -6 -14 23 -125 36 -139 5 -5
6 -15 3 -24 -5 -11 -3 -13 7 -7 10 6 12 4 7 -7 -3 -9 -1 -34 5 -57 8 -33 8
-45 -2 -54 -10 -9 -11 -9 -5 2 6 11 3 13 -14 8 -19 -4 -25 0 -34 26 -6 18 -10
35 -9 40 1 4 -2 7 -7 7 -5 0 -8 8 -7 18 1 15 -8 17 -68 17 -76 0 -79 -2 -96
-71 -9 -36 -14 -42 -35 -40 -15 0 -25 7 -25 16 0 8 16 74 36 145 20 72 36 142
37 157 0 15 3 25 7 23 5 -3 14 19 20 48 7 28 17 55 22 58 15 10 62 -3 73 -20z
m205 19 c22 4 37 4 34 -1 -4 -8 40 -95 91 -179 11 -19 32 -56 45 -82 14 -27
28 -48 32 -48 5 0 8 70 8 156 l0 155 26 -3 26 -3 1 -217 2 -218 -22 0 c-13 0
-26 -1 -29 -2 -3 -2 -17 17 -31 42 -13 25 -42 74 -62 110 -21 36 -52 89 -69
119 l-30 55 -1 -159 c-1 -87 -6 -165 -11 -174 -7 -12 -9 -12 -10 -2 0 7 -6 11
-15 8 -12 -5 -15 25 -17 206 -2 117 -6 219 -9 227 -3 8 -4 12 -2 9 2 -3 21 -3
43 1z m480 -4 c43 0 76 2 74 6 -3 4 2 5 10 2 9 -3 13 -10 10 -15 -3 -5 -1 -9
5 -9 17 0 40 -43 50 -92 9 -53 5 -63 -26 -64 -18 0 -24 6 -29 35 -8 53 -23 78
-54 91 -38 16 -76 3 -103 -34 -19 -27 -22 -43 -22 -136 0 -88 3 -111 21 -140
11 -19 27 -35 35 -35 8 0 19 -4 26 -8 7 -4 28 -1 48 7 27 12 37 23 42 48 4 18
6 36 5 41 -2 6 39 10 55 5 13 -5 2 -62 -18 -94 -51 -84 -208 -71 -254 21 -16
33 -19 60 -19 150 1 117 16 174 53 197 18 11 18 13 3 26 -9 7 -11 10 -4 7 8
-4 49 -8 92 -9z m-5388 -176 c3 -164 5 -181 23 -199 23 -22 85 -38 85 -22 0 6
6 8 13 5 7 -2 23 6 35 19 22 24 23 30 20 196 -3 156 -1 172 15 177 9 3 25 3
35 0 16 -5 17 -21 12 -188 -6 -202 -11 -221 -65 -244 -45 -18 -125 -20 -160
-3 -60 30 -64 46 -65 244 -1 99 -1 183 0 188 0 4 11 7 24 7 l25 0 3 -180z
m530 156 c30 -19 36 -32 48 -96 7 -36 4 -52 -11 -83 -24 -47 -69 -68 -149 -71
l-45 -1 -5 -87 c-3 -47 -8 -90 -12 -94 -5 -4 -8 -2 -8 5 0 6 -8 11 -17 9 -17
-3 -18 13 -21 207 -1 115 0 216 3 224 8 20 181 10 217 -13z m1128 -1 c0 -23
-4 -25 -45 -25 -25 0 -48 1 -52 3 -5 1 -10 -88 -13 -198 -5 -183 -6 -200 -22
-197 -10 2 -18 -3 -18 -10 0 -9 -3 -9 -10 2 -5 8 -10 101 -10 209 l0 194 -50
-5 c-42 -4 -51 -2 -55 13 -4 11 -3 23 0 29 4 6 61 10 141 10 l134 0 0 -25z
m102 -72 l3 -98 85 0 85 0 3 98 3 98 25 -3 26 -3 -2 -202 c0 -112 3 -211 9
-220 8 -16 4 -18 -25 -19 -19 0 -34 4 -35 10 0 6 -1 52 -2 101 l-2 90 -85 0
-85 0 -1 -98 c-1 -53 -3 -99 -5 -102 -12 -11 -48 9 -51 29 -2 11 -2 110 0 219
l3 197 24 0 c24 0 24 -2 27 -97z m999 76 c32 -22 59 -84 60 -137 0 -20 4 -46
8 -57 5 -11 4 -25 -1 -32 -6 -7 -8 -27 -6 -44 7 -45 -33 -123 -71 -140 -16 -7
-28 -16 -26 -19 6 -10 -120 6 -141 17 -33 19 -52 55 -64 124 -23 123 6 255 64
290 41 26 139 24 177 -2z m1310 -198 c0 -117 -2 -215 -3 -216 -2 -1 -15 -5
-30 -9 l-28 -6 -1 197 c-2 261 -2 256 36 251 l26 -3 0 -214z m1789 192 l0 -28
-97 0 -98 0 -3 -49 c-2 -27 -1 -60 3 -74 6 -23 9 -23 90 -21 46 2 88 0 91 -4
4 -4 2 -7 -4 -7 -6 0 -9 -7 -6 -15 5 -12 -10 -15 -83 -17 l-88 -3 -3 -77 -3
-78 107 0 c93 0 105 -2 100 -16 -3 -9 -6 -19 -6 -22 0 -4 -56 -6 -125 -4
l-124 3 -3 101 c-2 55 -2 153 0 219 l3 119 125 0 124 0 0 -27z"/>
<path    d="M4705 9279 c-73 -10 -196 -39 -279 -66 -36 -11 -45 -18 -35 -25 10
-7 8 -8 -7 -4 -28 8 -244 -100 -306 -153 -7 -7 -32 -26 -56 -43 -24 -17 -40
-33 -37 -36 2 -3 -9 -14 -26 -24 -16 -10 -27 -23 -24 -28 4 -6 2 -9 -3 -8 -14
4 -108 -98 -103 -113 2 -6 -1 -9 -6 -6 -24 15 -143 -181 -203 -333 -12 -30
-26 -63 -31 -73 -5 -9 -21 -63 -35 -120 -21 -83 -27 -134 -31 -274 -3 -95 -2
-180 2 -190 5 -10 9 -31 11 -48 5 -48 10 -78 19 -105 10 -28 11 -36 13 -68 1
-13 6 -21 11 -18 5 3 11 -3 14 -14 3 -13 1 -18 -5 -13 -6 3 -8 2 -5 -4 7 -11
24 -55 25 -63 1 -20 78 -168 118 -229 27 -41 62 -94 77 -118 16 -23 32 -43 37
-43 4 0 17 -16 29 -36 13 -22 26 -33 34 -28 6 4 9 4 5 0 -3 -4 8 -23 25 -41
30 -33 32 -34 51 -17 20 16 20 16 6 -2 -12 -16 -12 -20 1 -30 8 -6 42 -31 74
-57 59 -45 92 -65 192 -120 56 -32 68 -35 57 -17 -4 7 -3 8 5 4 6 -4 9 -11 6
-15 -2 -5 15 -14 38 -21 23 -6 61 -21 84 -31 22 -10 56 -20 75 -21 18 -2 35
-6 39 -10 3 -5 27 -10 55 -13 27 -2 65 -9 84 -15 54 -16 301 -12 394 5 228 44
409 122 596 257 65 47 222 205 261 263 18 28 41 58 50 68 10 11 28 40 41 65
12 26 27 50 31 53 5 4 10 18 10 32 1 14 5 23 9 21 10 -6 21 18 57 122 19 54
29 98 25 109 -5 11 -4 16 3 12 6 -4 15 15 21 46 27 128 34 212 29 339 -5 142
-34 309 -49 286 -4 -7 -5 1 -1 21 4 24 3 32 -5 27 -7 -4 -10 -2 -6 7 2 7 -1
27 -7 43 -7 16 -13 34 -15 39 -15 49 -32 84 -39 78 -4 -5 -5 -2 -1 5 5 7 -5
33 -23 61 -17 26 -31 52 -31 56 0 9 -49 84 -61 95 -3 3 -20 28 -39 55 -48 74
-239 258 -259 250 -8 -3 -12 -3 -8 1 17 17 -181 135 -308 184 -11 4 -31 12
-45 18 -160 66 -434 97 -625 71z m325 -165 c63 -9 127 -16 142 -17 14 -1 24
-5 21 -9 -2 -5 5 -8 16 -8 20 0 39 -6 119 -41 95 -42 138 -63 164 -81 22 -15
32 -17 50 -8 21 10 21 10 5 -3 -16 -13 -14 -16 24 -41 126 -84 289 -271 359
-411 20 -41 40 -72 43 -69 3 4 6 -2 5 -12 0 -11 11 -50 25 -89 14 -38 30 -99
37 -135 6 -36 14 -72 17 -80 10 -22 11 -53 11 -185 0 -152 -1 -174 -10 -168
-5 2 -8 -8 -8 -24 0 -15 -4 -44 -10 -63 -5 -19 -11 -46 -14 -60 -3 -14 -14
-48 -25 -76 -11 -29 -17 -55 -13 -58 3 -4 2 -10 -4 -14 -6 -4 -31 -46 -56 -93
-56 -107 -114 -185 -197 -265 -40 -40 -60 -67 -56 -75 5 -8 4 -10 -4 -5 -7 4
-25 -5 -44 -21 -44 -39 -172 -123 -186 -123 -7 0 -9 -5 -5 -12 4 -7 3 -8 -4
-4 -16 10 -54 -12 -46 -26 4 -7 2 -8 -5 -4 -6 4 -46 -6 -89 -22 -42 -16 -128
-39 -190 -52 -100 -19 -133 -22 -265 -16 -190 7 -248 16 -341 54 -21 9 -47 15
-57 15 -11 -1 -19 3 -19 8 0 6 -4 8 -9 5 -5 -4 -11 -3 -13 2 -1 4 -30 21 -63
38 -105 54 -139 75 -191 120 -28 24 -55 40 -59 36 -5 -4 -5 -2 -2 4 4 6 -6 22
-21 35 l-27 24 20 -25 c12 -16 5 -12 -18 9 -20 19 -37 41 -37 49 0 7 -4 10
-10 7 -5 -3 -10 -1 -10 5 0 6 -5 8 -12 4 -7 -5 -8 -3 -3 5 9 15 -43 73 -58 64
-6 -3 -7 -1 -3 5 3 6 -10 37 -31 69 -68 107 -123 230 -154 350 -29 108 -32
131 -33 283 -1 165 4 236 23 298 5 18 9 33 9 35 -4 7 58 183 65 188 5 4 6 12
2 19 -5 8 -4 11 2 7 12 -8 56 81 47 95 -4 6 -2 8 4 5 5 -4 22 13 36 38 15 25
31 45 36 45 5 0 12 9 15 20 8 26 165 183 214 214 20 13 51 39 70 57 19 19 31
27 26 20 -5 -10 2 -7 21 5 42 29 193 100 232 108 19 5 30 12 25 19 -4 6 0 8
10 4 21 -8 78 2 72 13 -2 4 8 7 23 8 15 0 63 4 107 10 118 14 177 13 305 -4z"/>
<path     d="M4737 8985 c-15 -8 -25 -10 -22 -5 8 13 8 13 -72 -6 -139 -32 -235
-73 -368 -159 -68 -43 -126 -95 -119 -106 3 -5 -1 -6 -9 -3 -8 3 -21 -3 -28
-14 -13 -18 -83 -103 -104 -126 -33 -37 -142 -236 -129 -236 3 0 -1 -11 -9
-24 -9 -13 -18 -34 -20 -47 -2 -13 -7 -31 -10 -39 -15 -37 -27 -103 -33 -176
-7 -89 -6 -233 1 -245 3 -4 7 -30 10 -58 5 -50 46 -179 81 -256 19 -40 93
-166 103 -175 4 -3 18 -21 33 -41 53 -71 214 -215 283 -252 96 -51 181 -89
244 -106 39 -11 71 -17 71 -14 0 3 6 1 13 -4 41 -33 312 -32 472 1 70 15 155
48 149 58 -5 7 -2 8 6 3 12 -8 146 56 178 85 9 9 33 26 52 40 106 72 290 289
294 345 0 13 5 21 9 18 7 -4 64 110 71 144 3 18 10 39 27 81 29 74 33 413 5
504 -10 32 -17 59 -16 60 2 4 -37 106 -53 138 -21 44 -90 165 -96 170 -3 3
-19 23 -36 45 -36 48 -145 158 -200 201 -70 53 -184 117 -200 110 -9 -3 -13
-2 -10 3 3 5 -5 13 -17 17 -13 3 -41 15 -63 25 -110 50 -422 79 -488 44z m184
-404 c-2 -54 15 -81 52 -81 12 0 49 -13 82 -29 87 -41 135 -101 160 -198 8
-31 15 -60 15 -64 0 -4 -40 -9 -89 -11 l-90 -3 -5 30 c-10 54 -40 105 -57 100
-9 -3 -22 3 -30 12 -11 15 -11 16 1 6 8 -7 19 -13 25 -13 15 1 -35 40 -51 40
-11 0 -14 -29 -14 -155 l0 -155 28 -11 c15 -6 55 -24 90 -41 34 -16 67 -26 74
-22 6 4 8 3 5 -3 -3 -5 12 -26 33 -47 50 -49 68 -84 79 -160 10 -64 9 -110 -3
-138 -4 -9 -9 -24 -10 -33 -4 -27 -73 -101 -119 -128 -24 -14 -74 -33 -110
-43 -62 -15 -67 -18 -65 -43 0 -14 0 -41 -1 -59 l-1 -33 -57 3 -57 3 3 58 c2
49 0 57 -16 58 -78 3 -169 45 -227 104 -75 76 -72 70 -83 162 l-5 41 86 4 86
3 16 -46 c8 -26 25 -58 37 -72 22 -25 77 -57 97 -57 7 0 10 53 8 167 l-3 168
-60 24 c-181 71 -252 180 -224 346 20 120 87 189 227 230 l63 19 -2 56 -3 55
55 5 c29 3 56 4 58 2 3 -1 4 -24 2 -51z"/>
<path    d="M4758 8350 c-91 -49 -91 -186 1 -244 22 -14 43 -26 46 -26 3 0 5 65
5 145 0 80 -3 145 -7 145 -5 -1 -25 -10 -45 -20z"/>
<path    d="M4920 7714 c0 -169 0 -170 60 -139 116 60 96 239 -32 284 l-28 10 0
-155z"/>
<path    d="M5728 9283 c-21 -2 -38 -8 -38 -13 0 -4 -9 -6 -20 -3 -11 3 -27 2
-36 -1 -12 -5 11 -25 82 -73 92 -61 103 -66 149 -64 126 5 362 -39 464 -85 30
-14 60 -23 68 -20 8 3 12 2 9 -2 -5 -8 60 -45 67 -39 2 1 21 -13 44 -30 22
-18 46 -33 52 -33 6 0 11 -4 11 -8 0 -4 15 -16 33 -27 17 -10 72 -59 120 -109
49 -50 93 -90 99 -88 5 1 7 -2 3 -8 -3 -6 0 -17 9 -25 8 -8 31 -43 52 -77 21
-35 42 -66 46 -69 5 -3 10 -16 13 -28 2 -13 10 -33 18 -45 71 -111 131 -483
103 -641 -23 -136 -68 -291 -105 -367 -40 -81 -133 -232 -166 -268 -10 -11
-14 -24 -9 -31 4 -8 3 -10 -5 -5 -7 5 -23 -4 -40 -21 -79 -79 -159 -143 -234
-187 -26 -16 -44 -33 -40 -38 3 -7 1 -8 -5 -4 -6 4 -38 -7 -71 -24 -33 -16
-65 -30 -69 -30 -5 0 -27 -8 -48 -17 -44 -18 -40 -17 -109 -32 -101 -22 -172
-31 -264 -31 -92 0 -96 -1 -148 -37 -39 -27 -50 -39 -41 -46 9 -6 8 -7 -5 -3
-19 6 -67 -12 -67 -26 0 -4 -7 -8 -15 -8 -8 0 -15 -4 -15 -9 0 -30 386 -44
443 -16 15 7 24 9 21 3 -4 -6 1 -8 12 -5 11 3 38 9 62 12 23 4 40 10 38 13 -2
4 16 8 39 9 24 1 64 11 89 22 25 12 50 21 55 21 18 0 225 108 248 130 12 11
26 20 30 20 4 1 24 15 43 32 19 17 29 27 21 23 -9 -6 -12 -4 -7 4 4 6 12 9 18
5 13 -8 69 46 61 59 -3 6 -1 7 4 4 15 -9 173 156 173 179 0 7 7 15 15 18 9 3
21 18 28 33 7 16 25 47 40 71 15 23 25 48 21 54 -4 6 -3 8 3 5 11 -7 73 118
73 146 0 9 5 19 11 23 6 3 8 15 6 26 -3 11 -3 17 1 14 9 -10 41 100 58 204 19
115 19 328 0 425 -20 103 -26 128 -32 145 -3 8 -8 26 -10 40 -3 13 -9 29 -13
35 -5 5 -12 25 -16 43 -3 17 -11 32 -16 32 -5 0 -9 9 -9 20 0 34 -103 219
-155 277 -5 6 -21 26 -35 45 -42 55 -171 182 -240 234 -120 92 -189 128 -224
119 -16 -5 -17 -4 -7 4 12 7 6 13 -25 27 -21 9 -51 22 -65 30 -14 7 -37 15
-51 18 -14 2 -34 9 -44 14 -11 6 -66 20 -124 32 -103 22 -342 34 -432 23z"/>
<path    d="M5961 8984 c7 -8 14 -12 16 -10 7 7 194 -233 198 -254 1 -3 8 -18 15
-33 13 -27 15 -28 28 -10 14 17 14 17 8 -2 -4 -11 -8 -22 -9 -25 0 -3 11 -28
25 -56 24 -45 93 -230 104 -279 16 -68 44 -292 44 -356 0 -104 -17 -270 -36
-350 -8 -36 -16 -72 -18 -80 -3 -15 -11 -38 -27 -77 -5 -13 -7 -27 -4 -32 3
-5 0 -10 -7 -12 -7 -3 -13 -22 -13 -46 0 -22 -3 -36 -6 -30 -9 15 -32 -29 -23
-45 4 -6 4 -9 -1 -5 -4 4 -20 -16 -34 -45 -15 -28 -39 -73 -55 -99 -15 -26
-25 -52 -21 -58 3 -5 0 -8 -7 -5 -7 3 -27 -16 -46 -43 -17 -26 -54 -72 -82
-102 -45 -51 -47 -55 -27 -58 56 -7 298 54 275 70 -9 6 -6 7 9 3 29 -8 157 60
261 137 89 67 195 176 185 191 -3 5 -2 7 4 4 6 -4 25 14 42 38 18 25 29 45 25
45 -4 0 3 11 16 24 13 15 20 31 16 41 -3 9 -2 13 4 10 9 -5 62 97 74 145 4 14
15 54 26 90 10 36 24 110 31 165 30 250 -62 560 -223 750 -68 82 -81 94 -89
89 -5 -3 -7 1 -4 8 9 29 -194 175 -310 222 -38 16 -83 35 -100 42 -43 19 -161
44 -223 48 -44 3 -51 2 -41 -10z"/>
<path    d="M3870 5780 c0 -5 6 -10 13 -10 9 0 9 -2 -1 -8 -9 -7 -12 -55 -10
-208 l3 -199 69 -3 c46 -2 66 0 61 7 -3 7 0 8 9 5 27 -10 34 29 35 186 1 85 3
156 6 158 10 11 -21 65 -42 73 -33 12 -143 12 -143 -1z"/>
<path    d="M3526 3968 c-2 -7 -9 -44 -16 -83 -7 -38 -18 -104 -25 -145 -8 -41
-16 -97 -19 -125 -4 -27 -9 -58 -12 -67 -5 -16 3 -18 76 -18 l82 0 -7 58 c-4
31 -10 62 -14 67 -4 6 -8 19 -8 30 -1 11 -11 74 -23 140 -12 66 -22 128 -22
138 1 20 -7 23 -12 5z"/>
<path    d="M5667 3970 c-4 -8 -11 -42 -16 -75 -19 -117 -52 -310 -57 -337 l-6
-28 81 0 c91 0 88 -3 71 80 -19 85 -30 145 -35 185 -12 96 -33 189 -38 175z"/>
<path    d="M8500 3866 l0 -186 68 0 c104 0 107 6 107 191 0 107 -4 152 -13 161
-7 7 -45 14 -87 16 l-75 4 0 -186z"/>
<path    d="M2740 1855 l0 -85 59 0 c52 0 62 3 80 26 28 36 27 85 -2 116 -19 20
-34 25 -80 27 l-57 2 0 -86z"/>
<path    d="M6510 1857 l0 -82 53 -3 c69 -3 97 20 97 81 -1 64 -19 81 -90 84
l-60 2 0 -82z"/>
<path    d="M3568 1934 c-5 -4 -8 -43 -8 -87 l0 -79 61 4 c72 5 89 21 89 83 0 60
-17 77 -81 83 -30 2 -57 0 -61 -4z"/>
<path    d="M5824 1940 c-30 -12 -56 -57 -48 -82 4 -14 2 -18 -5 -14 -8 5 -11
-18 -11 -75 0 -64 5 -93 21 -126 12 -24 24 -42 26 -39 3 3 12 -2 21 -10 16
-17 52 -12 89 11 29 19 47 109 40 202 -6 77 -23 113 -63 131 -29 14 -41 14
-70 2z"/>
</g>
</svg>
